<?xml version="1.0" encoding="UTF-8"?>
<svg id="Layer_1" data-name="Layer 1" xmlns="http://www.w3.org/2000/svg" viewBox="0 0 655.22 201">
  <path d="M162.03,99.93c0-19.08,6.99-35.46,20.98-49.15,13.93-13.69,30.66-20.54,50.21-20.54s35.87,6.91,49.68,20.71c13.87,13.81,20.8,30.4,20.8,49.77s-6.96,36.02-20.89,49.59c-13.99,13.63-30.87,20.45-50.65,20.45-17.5,0-33.21-6.06-47.14-18.17-15.33-13.4-23-30.95-23-52.66M182.65,100.19c0,14.98,5.03,27.3,15.1,36.95,10.01,9.66,21.56,14.48,34.67,14.48,14.22,0,26.22-4.92,35.99-14.75,9.77-9.95,14.66-22.06,14.66-36.34s-4.83-26.56-14.48-36.34c-9.6-9.83-21.47-14.75-35.64-14.75s-26.01,4.91-35.72,14.75c-9.72,9.71-14.57,21.71-14.57,35.99"/>
  <path d="M115.04,51.25c-6.9-6.32-14.6-10.79-23.09-13.43-7.9-2.69-18.67-4.04-32.3-4.04H4.5s.42,19.22,27.19,19.22h29.19c17.43,0,30.63,4.12,39.59,12.38,9.95,9.25,14.92,21.3,14.92,36.16s-5.04,26.72-15.1,35.9c-4.92,4.45-10.42,7.7-16.5,9.74-6.09,1.93-13.72,2.89-22.91,2.89h-29.19c-26.77,0-27.19,19.22-27.19,19.22h54.8c13.75,0,24.37-1.26,31.86-3.77,8.02-2.51,15.68-6.99,23-13.43,14.57-12.87,21.86-29.72,21.86-50.56s-6.99-37.54-20.98-50.29"/>
  <rect x="516.31" y="90.73" width="130.01" height="20.63"/>
  <path d="M646.32,33v-.22h-130.01v20.63h101.24c26.6-.19,28.62-18.22,28.77-20.41"/>
  <path d="M617.55,148.68h-101.24v20.63h130.01v-.22c-.15-2.19-2.17-20.22-28.77-20.41"/>
  <rect x="396.03" y="32.78" width="20.63" height="137.33"/>
  <path d="M453.98,32.78v108.57c.19,26.61,18.24,28.62,20.41,28.76h.22V32.78h-20.63Z"/>
  <path d="M358.71,141.34V32.78h-20.63v137.33h.22c2.17-.14,20.22-2.15,20.41-28.76"/>
</svg>